<svg width="392" height="136" viewBox="0 0 392 136" fill="none" xmlns="http://www.w3.org/2000/svg">
<path fill-rule="evenodd" clip-rule="evenodd" d="M252.461 0L222.845 7.94159V21.697L247.01 15.2171V135.309H260.819V15.5675L285.674 22.2324V8.906L252.461 0ZM201.444 136L152.421 86.9408V64.764L205.584 50.5084V26.3252L152.421 40.5809V26.7619L219.393 8.80349V22.6225V46.8056V60.6246L160.712 76.36L220.307 136H201.444ZM289.127 23.1579L289.126 23.1577V9.83147L392 37.4171V50.7434L354.027 40.5609V121.49V135.309H340.218H302.935H289.127V121.49V24.7575V23.1579ZM340.218 121.49V36.8581L302.935 26.8606V121.49H340.218ZM3.28834 80.0253L0 67.7438L97.1866 41.6832V54.8465V59.996V121.49H134.47V59.996V44.849V31.6857L148.278 27.983V41.1462V107.671V121.49V135.309H134.47H97.1866H83.378V121.49V58.5492L3.28834 80.0253Z" fill="white"/>
</svg>
