<svg width="658" height="136" viewBox="0 0 658 136" fill="none" xmlns="http://www.w3.org/2000/svg">
<path fill-rule="evenodd" clip-rule="evenodd" d="M252.461 0L222.845 7.94159V21.697L247.01 15.2171V135.309H260.819V15.5675L285.674 22.2324V8.906L252.461 0ZM201.444 136L152.421 86.9408V64.764L205.584 50.5084V26.3252L152.421 40.5809V26.7619L219.393 8.80349V22.6225V46.8056V60.6246L160.712 76.36L220.307 136H201.444ZM289.127 23.1579L289.126 23.1577V9.83147L392 37.4171V50.7434L354.027 40.5609V121.49V135.309H340.218H302.935H289.127V121.49V24.7575V23.1579ZM340.218 121.49V36.8581L302.935 26.8606V121.49H340.218ZM3.28834 80.0253L0 67.7438L97.1866 41.6832V54.8465V59.996V121.49H134.47V59.996V44.849V31.6857L148.278 27.983V41.1462V107.671V121.49V135.309H134.47H97.1866H83.378V121.49V58.5492L3.28834 80.0253Z" fill="white"/>
<path d="M441.153 39.5254H445.489V51.1562C445.489 53.002 445.543 54.1982 445.65 54.7451C445.836 55.624 446.275 56.332 446.969 56.8691C447.672 57.3965 448.629 57.6602 449.84 57.6602C451.07 57.6602 451.998 57.4111 452.623 56.9131C453.248 56.4053 453.624 55.7852 453.751 55.0527C453.878 54.3203 453.941 53.1045 453.941 51.4053V39.5254H458.277V50.8047C458.277 53.3828 458.16 55.2041 457.926 56.2686C457.691 57.333 457.257 58.2314 456.622 58.9639C455.997 59.6963 455.157 60.2822 454.103 60.7217C453.048 61.1514 451.671 61.3662 449.972 61.3662C447.921 61.3662 446.363 61.1318 445.299 60.6631C444.244 60.1846 443.409 59.5693 442.794 58.8174C442.179 58.0557 441.773 57.2598 441.578 56.4297C441.295 55.1992 441.153 53.3828 441.153 50.9805V39.5254Z" fill="#D7D7D7"/>
<path d="M466.773 61H462.657V45.4434H466.48V47.6553C467.135 46.6104 467.721 45.9219 468.238 45.5898C468.766 45.2578 469.361 45.0918 470.025 45.0918C470.963 45.0918 471.866 45.3506 472.735 45.8682L471.461 49.457C470.768 49.0078 470.123 48.7832 469.527 48.7832C468.951 48.7832 468.463 48.9443 468.062 49.2666C467.662 49.5791 467.345 50.1504 467.11 50.9805C466.886 51.8105 466.773 53.5488 466.773 56.1953V61Z" fill="#D7D7D7"/>
<path d="M474.347 61V39.5254H478.463V47.2598C479.732 45.8145 481.236 45.0918 482.975 45.0918C484.869 45.0918 486.437 45.7803 487.677 47.1572C488.917 48.5244 489.537 50.4922 489.537 53.0605C489.537 55.7168 488.902 57.7627 487.633 59.1982C486.373 60.6338 484.84 61.3516 483.033 61.3516C482.145 61.3516 481.266 61.1318 480.396 60.6924C479.537 60.2432 478.795 59.584 478.17 58.7148V61H474.347ZM478.434 52.8848C478.434 54.4961 478.688 55.6875 479.195 56.459C479.908 57.5527 480.855 58.0996 482.037 58.0996C482.945 58.0996 483.717 57.7139 484.352 56.9424C484.996 56.1611 485.318 54.9355 485.318 53.2656C485.318 51.4883 484.996 50.209 484.352 49.4277C483.707 48.6367 482.882 48.2412 481.876 48.2412C480.89 48.2412 480.069 48.627 479.415 49.3984C478.761 50.1602 478.434 51.3223 478.434 52.8848Z" fill="#D7D7D7"/>
<path d="M495.938 50.1895L492.203 49.5156C492.623 48.0117 493.346 46.8984 494.371 46.1758C495.396 45.4531 496.92 45.0918 498.941 45.0918C500.777 45.0918 502.145 45.3115 503.043 45.751C503.941 46.1807 504.571 46.7324 504.933 47.4062C505.304 48.0703 505.489 49.2959 505.489 51.083L505.445 55.8877C505.445 57.2549 505.509 58.2656 505.636 58.9199C505.772 59.5645 506.021 60.2578 506.383 61H502.311C502.203 60.7266 502.071 60.3213 501.915 59.7842C501.847 59.54 501.798 59.3789 501.769 59.3008C501.065 59.9844 500.313 60.4971 499.513 60.8389C498.712 61.1807 497.857 61.3516 496.949 61.3516C495.348 61.3516 494.083 60.917 493.155 60.0479C492.237 59.1787 491.778 58.0801 491.778 56.752C491.778 55.873 491.988 55.0918 492.408 54.4082C492.828 53.7148 493.414 53.1875 494.166 52.8262C494.928 52.4551 496.021 52.1328 497.447 51.8594C499.371 51.498 500.704 51.1611 501.446 50.8486V50.4385C501.446 49.6475 501.251 49.0859 500.86 48.7539C500.47 48.4121 499.732 48.2412 498.648 48.2412C497.916 48.2412 497.345 48.3877 496.935 48.6807C496.524 48.9639 496.192 49.4668 495.938 50.1895ZM501.446 53.5293C500.919 53.7051 500.084 53.915 498.941 54.1592C497.799 54.4033 497.052 54.6426 496.7 54.877C496.163 55.2578 495.895 55.7412 495.895 56.3271C495.895 56.9033 496.109 57.4014 496.539 57.8213C496.969 58.2412 497.516 58.4512 498.18 58.4512C498.922 58.4512 499.63 58.207 500.304 57.7188C500.802 57.3477 501.129 56.8936 501.285 56.3564C501.393 56.0049 501.446 55.3359 501.446 54.3496V53.5293Z" fill="#D7D7D7"/>
<path d="M523.712 61H519.596V53.0605C519.596 51.3809 519.508 50.2969 519.332 49.8086C519.156 49.3105 518.868 48.9248 518.468 48.6514C518.077 48.3779 517.604 48.2412 517.047 48.2412C516.334 48.2412 515.694 48.4365 515.128 48.8271C514.562 49.2178 514.171 49.7354 513.956 50.3799C513.751 51.0244 513.648 52.2158 513.648 53.9541V61H509.532V45.4434H513.355V47.7285C514.713 45.9707 516.422 45.0918 518.482 45.0918C519.391 45.0918 520.221 45.2578 520.973 45.5898C521.725 45.9121 522.291 46.3271 522.672 46.835C523.062 47.3428 523.331 47.9189 523.478 48.5635C523.634 49.208 523.712 50.1309 523.712 51.332V61Z" fill="#D7D7D7"/>
<path d="M536.134 45.4434H539.972V47.7285C540.47 46.9473 541.144 46.3125 541.993 45.8242C542.843 45.3359 543.785 45.0918 544.82 45.0918C546.627 45.0918 548.16 45.7998 549.42 47.2158C550.68 48.6318 551.31 50.6045 551.31 53.1338C551.31 55.7314 550.675 57.7529 549.405 59.1982C548.136 60.6338 546.598 61.3516 544.791 61.3516C543.932 61.3516 543.15 61.1807 542.447 60.8389C541.754 60.4971 541.021 59.9111 540.25 59.0811V66.918H536.134V45.4434ZM540.206 52.958C540.206 54.7061 540.553 56 541.246 56.8398C541.939 57.6699 542.784 58.085 543.78 58.085C544.737 58.085 545.533 57.7041 546.168 56.9424C546.803 56.1709 547.12 54.9111 547.12 53.1631C547.12 51.5322 546.793 50.3213 546.139 49.5303C545.484 48.7393 544.674 48.3438 543.707 48.3438C542.701 48.3438 541.866 48.7344 541.202 49.5156C540.538 50.2871 540.206 51.4346 540.206 52.958Z" fill="#D7D7D7"/>
<path d="M554.591 61V39.5254H558.707V61H554.591Z" fill="#D7D7D7"/>
<path d="M566.017 50.1895L562.281 49.5156C562.701 48.0117 563.424 46.8984 564.449 46.1758C565.475 45.4531 566.998 45.0918 569.02 45.0918C570.855 45.0918 572.223 45.3115 573.121 45.751C574.02 46.1807 574.649 46.7324 575.011 47.4062C575.382 48.0703 575.567 49.2959 575.567 51.083L575.523 55.8877C575.523 57.2549 575.587 58.2656 575.714 58.9199C575.851 59.5645 576.1 60.2578 576.461 61H572.389C572.281 60.7266 572.149 60.3213 571.993 59.7842C571.925 59.54 571.876 59.3789 571.847 59.3008C571.144 59.9844 570.392 60.4971 569.591 60.8389C568.79 61.1807 567.936 61.3516 567.027 61.3516C565.426 61.3516 564.161 60.917 563.233 60.0479C562.315 59.1787 561.856 58.0801 561.856 56.752C561.856 55.873 562.066 55.0918 562.486 54.4082C562.906 53.7148 563.492 53.1875 564.244 52.8262C565.006 52.4551 566.1 52.1328 567.525 51.8594C569.449 51.498 570.782 51.1611 571.524 50.8486V50.4385C571.524 49.6475 571.329 49.0859 570.938 48.7539C570.548 48.4121 569.811 48.2412 568.727 48.2412C567.994 48.2412 567.423 48.3877 567.013 48.6807C566.603 48.9639 566.271 49.4668 566.017 50.1895ZM571.524 53.5293C570.997 53.7051 570.162 53.915 569.02 54.1592C567.877 54.4033 567.13 54.6426 566.778 54.877C566.241 55.2578 565.973 55.7412 565.973 56.3271C565.973 56.9033 566.188 57.4014 566.617 57.8213C567.047 58.2412 567.594 58.4512 568.258 58.4512C569 58.4512 569.708 58.207 570.382 57.7188C570.88 57.3477 571.207 56.8936 571.363 56.3564C571.471 56.0049 571.524 55.3359 571.524 54.3496V53.5293Z" fill="#D7D7D7"/>
<path d="M593.79 61H589.674V53.0605C589.674 51.3809 589.586 50.2969 589.41 49.8086C589.234 49.3105 588.946 48.9248 588.546 48.6514C588.155 48.3779 587.682 48.2412 587.125 48.2412C586.412 48.2412 585.772 48.4365 585.206 48.8271C584.64 49.2178 584.249 49.7354 584.034 50.3799C583.829 51.0244 583.727 52.2158 583.727 53.9541V61H579.61V45.4434H583.434V47.7285C584.791 45.9707 586.5 45.0918 588.561 45.0918C589.469 45.0918 590.299 45.2578 591.051 45.5898C591.803 45.9121 592.369 46.3271 592.75 46.835C593.141 47.3428 593.409 47.9189 593.556 48.5635C593.712 49.208 593.79 50.1309 593.79 51.332V61Z" fill="#D7D7D7"/>
<path d="M612.13 61H608.014V53.0605C608.014 51.3809 607.926 50.2969 607.75 49.8086C607.574 49.3105 607.286 48.9248 606.886 48.6514C606.495 48.3779 606.021 48.2412 605.465 48.2412C604.752 48.2412 604.112 48.4365 603.546 48.8271C602.979 49.2178 602.589 49.7354 602.374 50.3799C602.169 51.0244 602.066 52.2158 602.066 53.9541V61H597.95V45.4434H601.773V47.7285C603.131 45.9707 604.84 45.0918 606.9 45.0918C607.809 45.0918 608.639 45.2578 609.391 45.5898C610.143 45.9121 610.709 46.3271 611.09 46.835C611.48 47.3428 611.749 47.9189 611.896 48.5635C612.052 49.208 612.13 50.1309 612.13 51.332V61Z" fill="#D7D7D7"/>
<path d="M616.319 43.334V39.5254H620.436V43.334H616.319ZM616.319 61V45.4434H620.436V61H616.319Z" fill="#D7D7D7"/>
<path d="M638.819 61H634.703V53.0605C634.703 51.3809 634.615 50.2969 634.439 49.8086C634.264 49.3105 633.976 48.9248 633.575 48.6514C633.185 48.3779 632.711 48.2412 632.154 48.2412C631.441 48.2412 630.802 48.4365 630.235 48.8271C629.669 49.2178 629.278 49.7354 629.063 50.3799C628.858 51.0244 628.756 52.2158 628.756 53.9541V61H624.64V45.4434H628.463V47.7285C629.82 45.9707 631.529 45.0918 633.59 45.0918C634.498 45.0918 635.328 45.2578 636.08 45.5898C636.832 45.9121 637.398 46.3271 637.779 46.835C638.17 47.3428 638.438 47.9189 638.585 48.5635C638.741 49.208 638.819 50.1309 638.819 51.332V61Z" fill="#D7D7D7"/>
<path d="M642.628 62.0254L647.33 62.5967C647.408 63.1436 647.589 63.5195 647.872 63.7246C648.263 64.0176 648.878 64.1641 649.718 64.1641C650.792 64.1641 651.598 64.0029 652.135 63.6807C652.496 63.4658 652.77 63.1191 652.955 62.6406C653.082 62.2988 653.146 61.6689 653.146 60.751V58.4805C651.915 60.1602 650.362 61 648.487 61C646.397 61 644.742 60.1162 643.521 58.3486C642.564 56.9521 642.086 55.2139 642.086 53.1338C642.086 50.5264 642.711 48.5342 643.961 47.1572C645.221 45.7803 646.783 45.0918 648.648 45.0918C650.572 45.0918 652.159 45.9365 653.409 47.626V45.4434H657.262V59.4033C657.262 61.2393 657.11 62.6113 656.808 63.5195C656.505 64.4277 656.08 65.1406 655.533 65.6582C654.986 66.1758 654.254 66.5811 653.336 66.874C652.428 67.167 651.275 67.3135 649.879 67.3135C647.242 67.3135 645.372 66.8594 644.269 65.9512C643.165 65.0527 642.613 63.9102 642.613 62.5234C642.613 62.3867 642.618 62.2207 642.628 62.0254ZM646.305 52.8994C646.305 54.5498 646.622 55.7607 647.257 56.5322C647.901 57.2939 648.692 57.6748 649.63 57.6748C650.636 57.6748 651.485 57.2842 652.179 56.5029C652.872 55.7119 653.219 54.5449 653.219 53.002C653.219 51.3906 652.887 50.1943 652.223 49.4131C651.559 48.6318 650.719 48.2412 649.703 48.2412C648.717 48.2412 647.901 48.627 647.257 49.3984C646.622 50.1602 646.305 51.3271 646.305 52.8994Z" fill="#D7D7D7"/>
<path d="M460.182 92.3779L457.691 95.5566C456.471 94.9609 455.299 94.1406 454.176 93.0957C453.307 93.877 452.384 94.4531 451.407 94.8242C450.431 95.1953 449.269 95.3809 447.921 95.3809C445.245 95.3809 443.233 94.6289 441.886 93.125C440.841 91.9629 440.318 90.625 440.318 89.1113C440.318 87.7344 440.729 86.499 441.549 85.4053C442.369 84.3018 443.595 83.3447 445.226 82.5342C444.493 81.665 443.941 80.8398 443.57 80.0586C443.199 79.2676 443.014 78.5205 443.014 77.8174C443.014 76.5186 443.531 75.4199 444.566 74.5215C445.611 73.6133 447.096 73.1592 449.02 73.1592C450.875 73.1592 452.325 73.6328 453.37 74.5801C454.415 75.5273 454.938 76.6846 454.938 78.0518C454.938 78.9209 454.679 79.7461 454.161 80.5273C453.644 81.3086 452.599 82.1924 451.026 83.1787L454.015 87.1191C454.366 86.4941 454.669 85.6787 454.923 84.6729L458.644 85.5225C458.272 86.8408 457.95 87.8076 457.677 88.4229C457.403 89.0283 457.11 89.5361 456.798 89.9463C457.257 90.376 457.848 90.8496 458.57 91.3672C459.303 91.875 459.84 92.2119 460.182 92.3779ZM448.976 80.7031L450.089 79.8535C450.909 79.2188 451.319 78.5889 451.319 77.9639C451.319 77.4365 451.119 76.9873 450.719 76.6162C450.328 76.2451 449.796 76.0596 449.122 76.0596C448.468 76.0596 447.955 76.2256 447.584 76.5576C447.213 76.8799 447.027 77.2559 447.027 77.6855C447.027 78.1934 447.34 78.8086 447.965 79.5312L448.976 80.7031ZM447.364 85.1709C446.417 85.6494 445.709 86.2256 445.24 86.8994C444.771 87.5732 444.537 88.2617 444.537 88.9648C444.537 89.8535 444.825 90.5811 445.401 91.1475C445.987 91.7041 446.769 91.9824 447.745 91.9824C448.39 91.9824 449.01 91.8555 449.605 91.6016C450.201 91.3477 450.851 90.9277 451.554 90.3418L447.364 85.1709Z" fill="#D7D7D7"/>
<path d="M471.227 95V73.5254H480.353C482.647 73.5254 484.312 73.7207 485.348 74.1113C486.393 74.4922 487.228 75.1758 487.853 76.1621C488.478 77.1484 488.79 78.2764 488.79 79.5459C488.79 81.1572 488.316 82.4902 487.369 83.5449C486.422 84.5898 485.006 85.249 483.121 85.5225C484.059 86.0693 484.83 86.6699 485.436 87.3242C486.051 87.9785 486.876 89.1406 487.911 90.8105L490.533 95H485.348L482.213 90.3271C481.1 88.6572 480.338 87.6074 479.928 87.1777C479.518 86.7383 479.083 86.4404 478.624 86.2842C478.165 86.1182 477.438 86.0352 476.441 86.0352H475.562V95H471.227ZM475.562 82.6074H478.771C480.851 82.6074 482.149 82.5195 482.667 82.3438C483.185 82.168 483.59 81.8652 483.883 81.4355C484.176 81.0059 484.322 80.4688 484.322 79.8242C484.322 79.1016 484.127 78.5205 483.736 78.0811C483.355 77.6318 482.813 77.3486 482.11 77.2314C481.759 77.1826 480.704 77.1582 478.946 77.1582H475.562V82.6074Z" fill="#D7D7D7"/>
<path d="M501.871 90.0488L505.973 90.7373C505.445 92.2412 504.61 93.3887 503.468 94.1797C502.335 94.9609 500.914 95.3516 499.205 95.3516C496.5 95.3516 494.498 94.4678 493.199 92.7002C492.174 91.2842 491.661 89.4971 491.661 87.3389C491.661 84.7607 492.335 82.7441 493.683 81.2891C495.03 79.8242 496.734 79.0918 498.795 79.0918C501.109 79.0918 502.936 79.8584 504.273 81.3916C505.611 82.915 506.251 85.2539 506.192 88.4082H495.88C495.909 89.6289 496.241 90.5811 496.876 91.2646C497.511 91.9385 498.302 92.2754 499.249 92.2754C499.894 92.2754 500.436 92.0996 500.875 91.748C501.314 91.3965 501.646 90.8301 501.871 90.0488ZM502.105 85.8887C502.076 84.6973 501.769 83.7939 501.183 83.1787C500.597 82.5537 499.884 82.2412 499.044 82.2412C498.146 82.2412 497.403 82.5684 496.817 83.2227C496.231 83.877 495.943 84.7656 495.953 85.8887H502.105Z" fill="#D7D7D7"/>
<path d="M512.638 84.1895L508.902 83.5156C509.322 82.0117 510.045 80.8984 511.07 80.1758C512.096 79.4531 513.619 79.0918 515.641 79.0918C517.477 79.0918 518.844 79.3115 519.742 79.751C520.641 80.1807 521.271 80.7324 521.632 81.4062C522.003 82.0703 522.188 83.2959 522.188 85.083L522.145 89.8877C522.145 91.2549 522.208 92.2656 522.335 92.9199C522.472 93.5645 522.721 94.2578 523.082 95H519.01C518.902 94.7266 518.771 94.3213 518.614 93.7842C518.546 93.54 518.497 93.3789 518.468 93.3008C517.765 93.9844 517.013 94.4971 516.212 94.8389C515.411 95.1807 514.557 95.3516 513.648 95.3516C512.047 95.3516 510.782 94.917 509.854 94.0479C508.937 93.1787 508.478 92.0801 508.478 90.752C508.478 89.873 508.688 89.0918 509.107 88.4082C509.527 87.7148 510.113 87.1875 510.865 86.8262C511.627 86.4551 512.721 86.1328 514.146 85.8594C516.07 85.498 517.403 85.1611 518.146 84.8486V84.4385C518.146 83.6475 517.95 83.0859 517.56 82.7539C517.169 82.4121 516.432 82.2412 515.348 82.2412C514.615 82.2412 514.044 82.3877 513.634 82.6807C513.224 82.9639 512.892 83.4668 512.638 84.1895ZM518.146 87.5293C517.618 87.7051 516.783 87.915 515.641 88.1592C514.498 88.4033 513.751 88.6426 513.399 88.877C512.862 89.2578 512.594 89.7412 512.594 90.3271C512.594 90.9033 512.809 91.4014 513.238 91.8213C513.668 92.2412 514.215 92.4512 514.879 92.4512C515.621 92.4512 516.329 92.207 517.003 91.7188C517.501 91.3477 517.828 90.8936 517.984 90.3564C518.092 90.0049 518.146 89.3359 518.146 88.3496V87.5293Z" fill="#D7D7D7"/>
<path d="M526.261 95V73.5254H530.377V95H526.261Z" fill="#D7D7D7"/>
<path d="M551.969 90.0488L556.07 90.7373C555.543 92.2412 554.708 93.3887 553.565 94.1797C552.433 94.9609 551.012 95.3516 549.303 95.3516C546.598 95.3516 544.596 94.4678 543.297 92.7002C542.271 91.2842 541.759 89.4971 541.759 87.3389C541.759 84.7607 542.433 82.7441 543.78 81.2891C545.128 79.8242 546.832 79.0918 548.893 79.0918C551.207 79.0918 553.033 79.8584 554.371 81.3916C555.709 82.915 556.349 85.2539 556.29 88.4082H545.978C546.007 89.6289 546.339 90.5811 546.974 91.2646C547.608 91.9385 548.399 92.2754 549.347 92.2754C549.991 92.2754 550.533 92.0996 550.973 91.748C551.412 91.3965 551.744 90.8301 551.969 90.0488ZM552.203 85.8887C552.174 84.6973 551.866 83.7939 551.28 83.1787C550.694 82.5537 549.981 82.2412 549.142 82.2412C548.243 82.2412 547.501 82.5684 546.915 83.2227C546.329 83.877 546.041 84.7656 546.051 85.8887H552.203Z" fill="#D7D7D7"/>
<path d="M558.209 90.5615L562.34 89.9316C562.516 90.7324 562.872 91.3428 563.409 91.7627C563.946 92.1729 564.698 92.3779 565.665 92.3779C566.729 92.3779 567.53 92.1826 568.067 91.792C568.429 91.5186 568.609 91.1523 568.609 90.6934C568.609 90.3809 568.512 90.1221 568.316 89.917C568.111 89.7217 567.652 89.541 566.939 89.375C563.619 88.6426 561.515 87.9736 560.626 87.3682C559.396 86.5283 558.78 85.3613 558.78 83.8672C558.78 82.5195 559.312 81.3867 560.377 80.4688C561.441 79.5508 563.092 79.0918 565.328 79.0918C567.457 79.0918 569.039 79.4385 570.074 80.1318C571.109 80.8252 571.822 81.8506 572.213 83.208L568.331 83.9258C568.165 83.3203 567.848 82.8564 567.379 82.5342C566.92 82.2119 566.261 82.0508 565.401 82.0508C564.317 82.0508 563.541 82.2021 563.072 82.5049C562.76 82.7197 562.604 82.998 562.604 83.3398C562.604 83.6328 562.74 83.8818 563.014 84.0869C563.385 84.3604 564.664 84.7461 566.852 85.2441C569.049 85.7422 570.582 86.3525 571.451 87.0752C572.311 87.8076 572.74 88.8281 572.74 90.1367C572.74 91.5625 572.145 92.7881 570.953 93.8135C569.762 94.8389 567.999 95.3516 565.665 95.3516C563.546 95.3516 561.866 94.9219 560.626 94.0625C559.396 93.2031 558.59 92.0361 558.209 90.5615Z" fill="#D7D7D7"/>
<path d="M583.492 79.4434V82.7246H580.68V88.9941C580.68 90.2637 580.704 91.0059 580.753 91.2207C580.812 91.4258 580.934 91.5967 581.119 91.7334C581.314 91.8701 581.549 91.9385 581.822 91.9385C582.203 91.9385 582.755 91.8066 583.478 91.543L583.829 94.7363C582.872 95.1465 581.788 95.3516 580.577 95.3516C579.835 95.3516 579.166 95.2295 578.57 94.9854C577.975 94.7314 577.535 94.4092 577.252 94.0186C576.979 93.6182 576.788 93.0811 576.681 92.4072C576.593 91.9287 576.549 90.9619 576.549 89.5068V82.7246H574.659V79.4434H576.549V76.3525L580.68 73.9502V79.4434H583.492Z" fill="#D7D7D7"/>
<path d="M589.425 84.1895L585.689 83.5156C586.109 82.0117 586.832 80.8984 587.857 80.1758C588.883 79.4531 590.406 79.0918 592.428 79.0918C594.264 79.0918 595.631 79.3115 596.529 79.751C597.428 80.1807 598.058 80.7324 598.419 81.4062C598.79 82.0703 598.976 83.2959 598.976 85.083L598.932 89.8877C598.932 91.2549 598.995 92.2656 599.122 92.9199C599.259 93.5645 599.508 94.2578 599.869 95H595.797C595.689 94.7266 595.558 94.3213 595.401 93.7842C595.333 93.54 595.284 93.3789 595.255 93.3008C594.552 93.9844 593.8 94.4971 592.999 94.8389C592.198 95.1807 591.344 95.3516 590.436 95.3516C588.834 95.3516 587.569 94.917 586.642 94.0479C585.724 93.1787 585.265 92.0801 585.265 90.752C585.265 89.873 585.475 89.0918 585.895 88.4082C586.314 87.7148 586.9 87.1875 587.652 86.8262C588.414 86.4551 589.508 86.1328 590.934 85.8594C592.857 85.498 594.19 85.1611 594.933 84.8486V84.4385C594.933 83.6475 594.737 83.0859 594.347 82.7539C593.956 82.4121 593.219 82.2412 592.135 82.2412C591.402 82.2412 590.831 82.3877 590.421 82.6807C590.011 82.9639 589.679 83.4668 589.425 84.1895ZM594.933 87.5293C594.405 87.7051 593.57 87.915 592.428 88.1592C591.285 88.4033 590.538 88.6426 590.187 88.877C589.649 89.2578 589.381 89.7412 589.381 90.3271C589.381 90.9033 589.596 91.4014 590.025 91.8213C590.455 92.2412 591.002 92.4512 591.666 92.4512C592.408 92.4512 593.116 92.207 593.79 91.7188C594.288 91.3477 594.615 90.8936 594.771 90.3564C594.879 90.0049 594.933 89.3359 594.933 88.3496V87.5293Z" fill="#D7D7D7"/>
<path d="M610.182 79.4434V82.7246H607.369V88.9941C607.369 90.2637 607.394 91.0059 607.442 91.2207C607.501 91.4258 607.623 91.5967 607.809 91.7334C608.004 91.8701 608.238 91.9385 608.512 91.9385C608.893 91.9385 609.444 91.8066 610.167 91.543L610.519 94.7363C609.562 95.1465 608.478 95.3516 607.267 95.3516C606.524 95.3516 605.855 95.2295 605.26 94.9854C604.664 94.7314 604.225 94.4092 603.941 94.0186C603.668 93.6182 603.478 93.0811 603.37 92.4072C603.282 91.9287 603.238 90.9619 603.238 89.5068V82.7246H601.349V79.4434H603.238V76.3525L607.369 73.9502V79.4434H610.182Z" fill="#D7D7D7"/>
<path d="M622.047 90.0488L626.148 90.7373C625.621 92.2412 624.786 93.3887 623.644 94.1797C622.511 94.9609 621.09 95.3516 619.381 95.3516C616.676 95.3516 614.674 94.4678 613.375 92.7002C612.35 91.2842 611.837 89.4971 611.837 87.3389C611.837 84.7607 612.511 82.7441 613.858 81.2891C615.206 79.8242 616.91 79.0918 618.971 79.0918C621.285 79.0918 623.111 79.8584 624.449 81.3916C625.787 82.915 626.427 85.2539 626.368 88.4082H616.056C616.085 89.6289 616.417 90.5811 617.052 91.2646C617.687 91.9385 618.478 92.2754 619.425 92.2754C620.069 92.2754 620.611 92.0996 621.051 91.748C621.49 91.3965 621.822 90.8301 622.047 90.0488ZM622.281 85.8887C622.252 84.6973 621.944 83.7939 621.358 83.1787C620.772 82.5537 620.06 82.2412 619.22 82.2412C618.321 82.2412 617.579 82.5684 616.993 83.2227C616.407 83.877 616.119 84.7656 616.129 85.8887H622.281Z" fill="#D7D7D7"/>
<path d="M441.051 129V107.525H445.387V129H441.051Z" fill="#D7D7D7"/>
<path d="M463.653 129H459.537V121.061C459.537 119.381 459.449 118.297 459.273 117.809C459.098 117.311 458.81 116.925 458.409 116.651C458.019 116.378 457.545 116.241 456.988 116.241C456.275 116.241 455.636 116.437 455.069 116.827C454.503 117.218 454.112 117.735 453.897 118.38C453.692 119.024 453.59 120.216 453.59 121.954V129H449.474V113.443H453.297V115.729C454.654 113.971 456.363 113.092 458.424 113.092C459.332 113.092 460.162 113.258 460.914 113.59C461.666 113.912 462.232 114.327 462.613 114.835C463.004 115.343 463.272 115.919 463.419 116.563C463.575 117.208 463.653 118.131 463.653 119.332V129Z" fill="#D7D7D7"/>
<path d="M476.207 107.525H484.132C485.919 107.525 487.281 107.662 488.219 107.936C489.479 108.307 490.558 108.966 491.456 109.913C492.354 110.86 493.038 112.022 493.507 113.399C493.976 114.767 494.21 116.456 494.21 118.468C494.21 120.235 493.99 121.759 493.551 123.038C493.014 124.601 492.247 125.865 491.251 126.832C490.499 127.564 489.483 128.136 488.204 128.546C487.247 128.849 485.968 129 484.366 129H476.207V107.525ZM480.543 111.158V125.382H483.78C484.991 125.382 485.865 125.313 486.402 125.177C487.105 125.001 487.687 124.703 488.146 124.283C488.614 123.863 488.995 123.175 489.288 122.218C489.581 121.251 489.728 119.938 489.728 118.277C489.728 116.617 489.581 115.343 489.288 114.454C488.995 113.565 488.585 112.872 488.058 112.374C487.53 111.876 486.861 111.539 486.051 111.363C485.445 111.227 484.259 111.158 482.491 111.158H480.543Z" fill="#D7D7D7"/>
<path d="M500.948 118.189L497.213 117.516C497.633 116.012 498.355 114.898 499.381 114.176C500.406 113.453 501.93 113.092 503.951 113.092C505.787 113.092 507.154 113.312 508.053 113.751C508.951 114.181 509.581 114.732 509.942 115.406C510.313 116.07 510.499 117.296 510.499 119.083L510.455 123.888C510.455 125.255 510.519 126.266 510.646 126.92C510.782 127.564 511.031 128.258 511.393 129H507.32C507.213 128.727 507.081 128.321 506.925 127.784C506.856 127.54 506.808 127.379 506.778 127.301C506.075 127.984 505.323 128.497 504.522 128.839C503.722 129.181 502.867 129.352 501.959 129.352C500.357 129.352 499.093 128.917 498.165 128.048C497.247 127.179 496.788 126.08 496.788 124.752C496.788 123.873 496.998 123.092 497.418 122.408C497.838 121.715 498.424 121.188 499.176 120.826C499.938 120.455 501.031 120.133 502.457 119.859C504.381 119.498 505.714 119.161 506.456 118.849V118.438C506.456 117.647 506.261 117.086 505.87 116.754C505.479 116.412 504.742 116.241 503.658 116.241C502.926 116.241 502.354 116.388 501.944 116.681C501.534 116.964 501.202 117.467 500.948 118.189ZM506.456 121.529C505.929 121.705 505.094 121.915 503.951 122.159C502.809 122.403 502.062 122.643 501.71 122.877C501.173 123.258 500.904 123.741 500.904 124.327C500.904 124.903 501.119 125.401 501.549 125.821C501.979 126.241 502.525 126.451 503.189 126.451C503.932 126.451 504.64 126.207 505.313 125.719C505.812 125.348 506.139 124.894 506.295 124.356C506.402 124.005 506.456 123.336 506.456 122.35V121.529Z" fill="#D7D7D7"/>
<path d="M528.722 129H524.605V121.061C524.605 119.381 524.518 118.297 524.342 117.809C524.166 117.311 523.878 116.925 523.478 116.651C523.087 116.378 522.613 116.241 522.057 116.241C521.344 116.241 520.704 116.437 520.138 116.827C519.571 117.218 519.181 117.735 518.966 118.38C518.761 119.024 518.658 120.216 518.658 121.954V129H514.542V113.443H518.365V115.729C519.723 113.971 521.432 113.092 523.492 113.092C524.4 113.092 525.23 113.258 525.982 113.59C526.734 113.912 527.301 114.327 527.682 114.835C528.072 115.343 528.341 115.919 528.487 116.563C528.644 117.208 528.722 118.131 528.722 119.332V129Z" fill="#D7D7D7"/>
<path d="M532.765 129V107.525H536.881V118.922L541.7 113.443H546.769L541.451 119.127L547.149 129H542.711L538.8 122.013L536.881 124.02V129H532.765Z" fill="#D7D7D7"/>
<path d="M548.658 121.002C548.658 119.635 548.995 118.312 549.669 117.032C550.343 115.753 551.295 114.776 552.525 114.103C553.766 113.429 555.147 113.092 556.671 113.092C559.024 113.092 560.953 113.858 562.457 115.392C563.961 116.915 564.713 118.844 564.713 121.178C564.713 123.531 563.951 125.484 562.428 127.037C560.914 128.58 559.005 129.352 556.7 129.352C555.274 129.352 553.912 129.029 552.613 128.385C551.324 127.74 550.343 126.798 549.669 125.558C548.995 124.308 548.658 122.789 548.658 121.002ZM552.877 121.222C552.877 122.765 553.243 123.946 553.976 124.767C554.708 125.587 555.611 125.997 556.686 125.997C557.76 125.997 558.658 125.587 559.381 124.767C560.113 123.946 560.479 122.755 560.479 121.192C560.479 119.669 560.113 118.497 559.381 117.677C558.658 116.856 557.76 116.446 556.686 116.446C555.611 116.446 554.708 116.856 553.976 117.677C553.243 118.497 552.877 119.679 552.877 121.222Z" fill="#D7D7D7"/>
<path d="M566.998 121.002C566.998 119.635 567.335 118.312 568.009 117.032C568.683 115.753 569.635 114.776 570.865 114.103C572.105 113.429 573.487 113.092 575.011 113.092C577.364 113.092 579.293 113.858 580.797 115.392C582.301 116.915 583.053 118.844 583.053 121.178C583.053 123.531 582.291 125.484 580.768 127.037C579.254 128.58 577.345 129.352 575.04 129.352C573.614 129.352 572.252 129.029 570.953 128.385C569.664 127.74 568.683 126.798 568.009 125.558C567.335 124.308 566.998 122.789 566.998 121.002ZM571.217 121.222C571.217 122.765 571.583 123.946 572.315 124.767C573.048 125.587 573.951 125.997 575.025 125.997C576.1 125.997 576.998 125.587 577.721 124.767C578.453 123.946 578.819 122.755 578.819 121.192C578.819 119.669 578.453 118.497 577.721 117.677C576.998 116.856 576.1 116.446 575.025 116.446C573.951 116.446 573.048 116.856 572.315 117.677C571.583 118.497 571.217 119.679 571.217 121.222Z" fill="#D7D7D7"/>
<path d="M586.144 129V107.525H590.26V118.922L595.079 113.443H600.147L594.83 119.127L600.528 129H596.09L592.179 122.013L590.26 124.02V129H586.144Z" fill="#D7D7D7"/>
</svg>
