<svg width="28" height="28" viewBox="0 0 28 28" fill="none" xmlns="http://www.w3.org/2000/svg">
<path d="M3.45926 3.05441L16.7462 2.05922C18.3591 1.90612 18.7815 2.02094 19.8183 2.7482L24.0809 5.73375C24.7722 6.23134 25.0026 6.38445 25.0026 6.9586V23.3026C25.0026 24.3361 24.6185 24.9485 23.3129 25.025L7.87545 25.9437C6.877 25.982 6.41619 25.8671 5.91696 25.2164L2.80643 21.1974C2.23041 20.4319 2 19.896 2 19.2453V4.70029C2 3.85821 2.38402 3.13096 3.45926 3.05441Z" fill="white"/>
<path fill-rule="evenodd" clip-rule="evenodd" d="M16.7462 2.05941L3.45926 3.05459C2.38402 3.13115 2 3.8584 2 4.70048V19.2455C2 19.8962 2.23041 20.4703 2.80643 21.1976L5.91696 25.2549C6.41619 25.9056 6.91541 26.0587 7.87545 25.9821L23.3129 25.0635C24.6185 24.987 25.0026 24.3745 25.0026 23.3411V6.95878C25.0026 6.42291 24.8106 6.26981 24.1577 5.81049C24.1193 5.77222 24.0809 5.77222 24.0425 5.73394L19.8183 2.78666C18.8199 2.02113 18.3975 1.94458 16.7462 2.05941ZM8.22106 6.69085C6.95381 6.7674 6.685 6.80568 5.95537 6.19326L4.15049 4.77703C3.95848 4.58565 4.03529 4.35599 4.53451 4.31771L17.3222 3.39908C18.3975 3.32253 18.9351 3.66702 19.3575 4.0115L21.5464 5.58083C21.6616 5.61911 21.892 5.88704 21.5848 5.88704L8.37467 6.69085H8.22106ZM6.7618 23.188V9.29364C6.7618 8.68122 6.95381 8.41329 7.49143 8.37501L22.6601 7.49465C23.1593 7.45638 23.3897 7.76259 23.3897 8.37501V22.1545C23.3897 22.7669 23.2745 23.2645 22.4681 23.3028L7.95225 24.1449C7.14582 24.2214 6.7618 23.9152 6.7618 23.188ZM21.0856 10.0592C21.1624 10.4802 21.0856 10.9012 20.6632 10.9395L19.972 11.0926V21.3507C19.3575 21.6952 18.8199 21.8483 18.3591 21.8483C17.6295 21.8483 17.4374 21.6186 16.8614 20.9297L12.2532 13.7337V20.6617L13.7125 21.0062C13.7125 21.0062 13.7125 21.8483 12.5604 21.8483L9.33471 22.0397C9.2579 21.8483 9.33471 21.389 9.64192 21.3124L10.4868 21.0828V11.8964L9.33471 11.7816C9.2579 11.3606 9.48831 10.7481 10.1411 10.7099L13.5973 10.4802L18.3591 17.7527V11.3223L17.1302 11.1692C17.0534 10.6716 17.399 10.2888 17.8599 10.2506L21.0856 10.0592Z" fill="black"/>
</svg>
