<svg width="541" height="118" viewBox="0 0 541 118" fill="none" xmlns="http://www.w3.org/2000/svg">
<path d="M0 50.8015V42.3345L40.9239 31.0452V95.9589H67.736V22.5782L77.6142 19.7559V104.426H32.4569V42.3345L0 50.8015Z" fill="white"/>
<path fill-rule="evenodd" clip-rule="evenodd" d="M194.741 8.4668V105.837H239.899V29.6343L275.178 38.1013V31.0455L194.741 8.4668ZM203.208 19.7559V98.7812H231.432V26.94L203.208 19.7559Z" fill="white"/>
<path d="M87.4924 28.2231V19.7561L131.239 8.4668V42.3348L94.5483 53.6242L131.239 94.548V104.426L87.4924 57.8577V46.5683L122.772 36.6901V18.345L87.4924 28.2231Z" fill="white"/>
<path d="M141.117 14.1117V7.05584L163.695 0L184.863 7.05584V14.1117L167.929 9.87817V105.838H159.462V9.87817L141.117 14.1117Z" fill="white"/>
<g filter="url(#filter0_i_344_468)">
<path d="M289.794 25.1045H293.408V34.7969C293.408 36.335 293.452 37.3319 293.542 37.7876C293.697 38.52 294.063 39.11 294.641 39.5576C295.227 39.9971 296.024 40.2168 297.033 40.2168C298.059 40.2168 298.832 40.0093 299.353 39.5942C299.873 39.1711 300.187 38.6543 300.292 38.0439C300.398 37.4336 300.451 36.4204 300.451 35.0044V25.1045H304.064V34.5039C304.064 36.6523 303.967 38.1701 303.771 39.0571C303.576 39.9442 303.214 40.6929 302.685 41.3032C302.164 41.9136 301.464 42.4019 300.585 42.7681C299.707 43.1261 298.559 43.3052 297.143 43.3052C295.434 43.3052 294.136 43.1099 293.249 42.7192C292.37 42.3205 291.674 41.8078 291.162 41.1812C290.649 40.5464 290.311 39.8831 290.148 39.1914C289.912 38.166 289.794 36.6523 289.794 34.6504V25.1045ZM311.145 43H307.714V30.0361H310.9V31.8794C311.446 31.0086 311.934 30.4349 312.365 30.1582C312.805 29.8815 313.301 29.7432 313.854 29.7432C314.636 29.7432 315.389 29.9588 316.113 30.3901L315.051 33.3809C314.473 33.0065 313.936 32.8193 313.439 32.8193C312.959 32.8193 312.552 32.9536 312.219 33.2222C311.885 33.4826 311.621 33.9587 311.425 34.6504C311.238 35.3421 311.145 36.7907 311.145 38.9961V43ZM317.456 43V25.1045H320.886V31.5498C321.944 30.3454 323.197 29.7432 324.646 29.7432C326.224 29.7432 327.53 30.3169 328.564 31.4644C329.597 32.6037 330.114 34.2435 330.114 36.3838C330.114 38.5973 329.585 40.3022 328.527 41.4985C327.478 42.6948 326.2 43.293 324.694 43.293C323.954 43.293 323.221 43.1099 322.497 42.7437C321.781 42.3693 321.162 41.82 320.642 41.0957V43H317.456ZM320.861 36.2373C320.861 37.5801 321.073 38.5729 321.496 39.2158C322.09 40.1273 322.88 40.583 323.864 40.583C324.621 40.583 325.264 40.2616 325.793 39.6187C326.33 38.9676 326.599 37.9463 326.599 36.5547C326.599 35.0736 326.33 34.0075 325.793 33.3564C325.256 32.6973 324.568 32.3677 323.73 32.3677C322.908 32.3677 322.224 32.6891 321.679 33.332C321.134 33.9668 320.861 34.9352 320.861 36.2373ZM335.449 33.9912L332.336 33.4297C332.686 32.1764 333.288 31.2487 334.143 30.6465C334.997 30.0443 336.267 29.7432 337.951 29.7432C339.481 29.7432 340.62 29.9263 341.369 30.2925C342.118 30.6506 342.643 31.1104 342.944 31.6719C343.253 32.2253 343.408 33.2466 343.408 34.7358L343.371 38.7397C343.371 39.8791 343.424 40.7214 343.53 41.2666C343.644 41.8037 343.851 42.3815 344.152 43H340.759C340.669 42.7721 340.559 42.4344 340.429 41.9868C340.372 41.7834 340.332 41.6491 340.307 41.584C339.721 42.1536 339.095 42.5809 338.427 42.8657C337.76 43.1506 337.048 43.293 336.291 43.293C334.956 43.293 333.903 42.9308 333.129 42.2065C332.364 41.4823 331.982 40.5667 331.982 39.46C331.982 38.7275 332.157 38.0765 332.507 37.5068C332.857 36.929 333.345 36.4896 333.972 36.1885C334.606 35.8792 335.518 35.6107 336.706 35.3828C338.309 35.0817 339.42 34.8009 340.039 34.5405V34.1987C340.039 33.5396 339.876 33.0716 339.55 32.7949C339.225 32.5101 338.61 32.3677 337.707 32.3677C337.097 32.3677 336.621 32.4897 336.279 32.7339C335.937 32.9699 335.66 33.389 335.449 33.9912ZM340.039 36.7744C339.599 36.9209 338.903 37.0959 337.951 37.2993C336.999 37.5028 336.376 37.7021 336.083 37.8975C335.636 38.2148 335.412 38.6177 335.412 39.106C335.412 39.5861 335.591 40.0011 335.949 40.3511C336.307 40.701 336.763 40.876 337.316 40.876C337.935 40.876 338.525 40.6725 339.086 40.2656C339.501 39.9564 339.774 39.578 339.904 39.1304C339.994 38.8374 340.039 38.2799 340.039 37.458V36.7744ZM358.593 43H355.163V36.3838C355.163 34.984 355.09 34.0807 354.943 33.6738C354.797 33.2588 354.557 32.9373 354.223 32.7095C353.898 32.4816 353.503 32.3677 353.039 32.3677C352.445 32.3677 351.912 32.5304 351.44 32.856C350.968 33.1815 350.642 33.6128 350.463 34.1499C350.292 34.687 350.207 35.6799 350.207 37.1284V43H346.777V30.0361H349.963V31.9404C351.094 30.4756 352.518 29.7432 354.235 29.7432C354.992 29.7432 355.684 29.8815 356.311 30.1582C356.937 30.4268 357.409 30.7726 357.727 31.1958C358.052 31.619 358.276 32.0991 358.398 32.6362C358.528 33.1733 358.593 33.9424 358.593 34.9434V43ZM368.945 30.0361H372.143V31.9404C372.558 31.2894 373.12 30.7604 373.828 30.3535C374.536 29.9466 375.321 29.7432 376.184 29.7432C377.689 29.7432 378.967 30.3332 380.017 31.5132C381.066 32.6932 381.591 34.3371 381.591 36.4448C381.591 38.6095 381.062 40.2941 380.004 41.4985C378.946 42.6948 377.665 43.293 376.159 43.293C375.443 43.293 374.792 43.1506 374.206 42.8657C373.628 42.5809 373.018 42.0926 372.375 41.4009V47.9316H368.945V30.0361ZM372.338 36.2983C372.338 37.755 372.627 38.8333 373.205 39.5332C373.783 40.2249 374.487 40.5708 375.317 40.5708C376.114 40.5708 376.778 40.2534 377.307 39.6187C377.836 38.9757 378.1 37.9259 378.1 36.4692C378.1 35.1102 377.827 34.1011 377.282 33.4419C376.737 32.7827 376.062 32.4531 375.256 32.4531C374.418 32.4531 373.722 32.7786 373.168 33.4297C372.615 34.0726 372.338 35.0288 372.338 36.2983ZM384.326 43V25.1045H387.756V43H384.326ZM393.847 33.9912L390.734 33.4297C391.084 32.1764 391.687 31.2487 392.541 30.6465C393.396 30.0443 394.665 29.7432 396.35 29.7432C397.88 29.7432 399.019 29.9263 399.768 30.2925C400.516 30.6506 401.041 31.1104 401.342 31.6719C401.652 32.2253 401.806 33.2466 401.806 34.7358L401.77 38.7397C401.77 39.8791 401.822 40.7214 401.928 41.2666C402.042 41.8037 402.25 42.3815 402.551 43H399.157C399.068 42.7721 398.958 42.4344 398.828 41.9868C398.771 41.7834 398.73 41.6491 398.706 41.584C398.12 42.1536 397.493 42.5809 396.826 42.8657C396.158 43.1506 395.446 43.293 394.689 43.293C393.355 43.293 392.301 42.9308 391.528 42.2065C390.763 41.4823 390.38 40.5667 390.38 39.46C390.38 38.7275 390.555 38.0765 390.905 37.5068C391.255 36.929 391.743 36.4896 392.37 36.1885C393.005 35.8792 393.916 35.6107 395.104 35.3828C396.708 35.0817 397.819 34.8009 398.437 34.5405V34.1987C398.437 33.5396 398.274 33.0716 397.949 32.7949C397.623 32.5101 397.009 32.3677 396.105 32.3677C395.495 32.3677 395.019 32.4897 394.677 32.7339C394.335 32.9699 394.059 33.389 393.847 33.9912ZM398.437 36.7744C397.998 36.9209 397.302 37.0959 396.35 37.2993C395.397 37.5028 394.775 37.7021 394.482 37.8975C394.034 38.2148 393.811 38.6177 393.811 39.106C393.811 39.5861 393.99 40.0011 394.348 40.3511C394.706 40.701 395.161 40.876 395.715 40.876C396.333 40.876 396.923 40.6725 397.485 40.2656C397.9 39.9564 398.173 39.578 398.303 39.1304C398.392 38.8374 398.437 38.2799 398.437 37.458V36.7744ZM416.992 43H413.562V36.3838C413.562 34.984 413.488 34.0807 413.342 33.6738C413.195 33.2588 412.955 32.9373 412.622 32.7095C412.296 32.4816 411.901 32.3677 411.438 32.3677C410.843 32.3677 410.31 32.5304 409.838 32.856C409.366 33.1815 409.041 33.6128 408.862 34.1499C408.691 34.687 408.605 35.6799 408.605 37.1284V43H405.175V30.0361H408.361V31.9404C409.493 30.4756 410.917 29.7432 412.634 29.7432C413.391 29.7432 414.082 29.8815 414.709 30.1582C415.336 30.4268 415.808 30.7726 416.125 31.1958C416.451 31.619 416.674 32.0991 416.796 32.6362C416.927 33.1733 416.992 33.9424 416.992 34.9434V43ZM432.275 43H428.845V36.3838C428.845 34.984 428.771 34.0807 428.625 33.6738C428.479 33.2588 428.238 32.9373 427.905 32.7095C427.579 32.4816 427.185 32.3677 426.721 32.3677C426.127 32.3677 425.594 32.5304 425.122 32.856C424.65 33.1815 424.324 33.6128 424.145 34.1499C423.974 34.687 423.889 35.6799 423.889 37.1284V43H420.458V30.0361H423.645V31.9404C424.776 30.4756 426.2 29.7432 427.917 29.7432C428.674 29.7432 429.366 29.8815 429.992 30.1582C430.619 30.4268 431.091 30.7726 431.408 31.1958C431.734 31.619 431.958 32.0991 432.08 32.6362C432.21 33.1733 432.275 33.9424 432.275 34.9434V43ZM435.766 28.2783V25.1045H439.196V28.2783H435.766ZM435.766 43V30.0361H439.196V43H435.766ZM454.516 43H451.086V36.3838C451.086 34.984 451.013 34.0807 450.866 33.6738C450.72 33.2588 450.48 32.9373 450.146 32.7095C449.82 32.4816 449.426 32.3677 448.962 32.3677C448.368 32.3677 447.835 32.5304 447.363 32.856C446.891 33.1815 446.565 33.6128 446.386 34.1499C446.215 34.687 446.13 35.6799 446.13 37.1284V43H442.7V30.0361H445.886V31.9404C447.017 30.4756 448.441 29.7432 450.158 29.7432C450.915 29.7432 451.607 29.8815 452.233 30.1582C452.86 30.4268 453.332 30.7726 453.649 31.1958C453.975 31.619 454.199 32.0991 454.321 32.6362C454.451 33.1733 454.516 33.9424 454.516 34.9434V43ZM457.69 43.8545L461.608 44.3306C461.674 44.7863 461.824 45.0996 462.06 45.2705C462.386 45.5146 462.898 45.6367 463.598 45.6367C464.493 45.6367 465.165 45.5024 465.612 45.2339C465.913 45.0549 466.141 44.766 466.296 44.3672C466.402 44.0824 466.455 43.5575 466.455 42.7925V40.9004C465.429 42.3001 464.135 43 462.573 43C460.831 43 459.452 42.2635 458.435 40.7905C457.637 39.6268 457.238 38.1782 457.238 36.4448C457.238 34.272 457.759 32.6118 458.801 31.4644C459.851 30.3169 461.153 29.7432 462.707 29.7432C464.31 29.7432 465.633 30.4471 466.674 31.855V30.0361H469.885V41.6694C469.885 43.1994 469.759 44.3428 469.506 45.0996C469.254 45.8564 468.9 46.4505 468.444 46.8818C467.989 47.3132 467.378 47.6509 466.613 47.895C465.856 48.1392 464.896 48.2612 463.732 48.2612C461.535 48.2612 459.977 47.8828 459.057 47.126C458.138 46.3773 457.678 45.4251 457.678 44.2695C457.678 44.1556 457.682 44.0173 457.69 43.8545ZM460.754 36.2495C460.754 37.6248 461.018 38.634 461.547 39.2769C462.084 39.9116 462.744 40.229 463.525 40.229C464.363 40.229 465.071 39.9035 465.649 39.2524C466.227 38.5933 466.516 37.6208 466.516 36.335C466.516 34.9922 466.239 33.9953 465.686 33.3442C465.132 32.6932 464.432 32.3677 463.586 32.3677C462.764 32.3677 462.084 32.6891 461.547 33.332C461.018 33.9668 460.754 34.9393 460.754 36.2495ZM305.651 69.8149L303.576 72.4639C302.559 71.9674 301.582 71.2839 300.646 70.4131C299.922 71.0641 299.153 71.5443 298.339 71.8535C297.526 72.1628 296.557 72.3174 295.434 72.3174C293.204 72.3174 291.528 71.6908 290.405 70.4375C289.534 69.4691 289.099 68.3542 289.099 67.0928C289.099 65.9453 289.44 64.9159 290.124 64.0044C290.808 63.0848 291.829 62.2873 293.188 61.6118C292.578 60.8875 292.118 60.1999 291.809 59.5488C291.499 58.8896 291.345 58.2671 291.345 57.6812C291.345 56.5988 291.776 55.6833 292.639 54.9346C293.509 54.1777 294.746 53.7993 296.35 53.7993C297.896 53.7993 299.104 54.194 299.975 54.9834C300.846 55.7728 301.281 56.7371 301.281 57.8765C301.281 58.6007 301.066 59.2884 300.634 59.9395C300.203 60.5905 299.332 61.327 298.022 62.1489L300.512 65.4326C300.805 64.9118 301.057 64.2323 301.269 63.394L304.37 64.1021C304.06 65.2007 303.792 66.0063 303.564 66.519C303.336 67.0236 303.092 67.4468 302.832 67.7886C303.214 68.1466 303.706 68.5413 304.309 68.9727C304.919 69.3958 305.367 69.6766 305.651 69.8149ZM296.313 60.0859L297.241 59.3779C297.924 58.849 298.266 58.3241 298.266 57.8032C298.266 57.3638 298.099 56.9894 297.766 56.6802C297.44 56.3709 296.997 56.2163 296.435 56.2163C295.89 56.2163 295.463 56.3547 295.153 56.6313C294.844 56.8999 294.689 57.2132 294.689 57.5713C294.689 57.9945 294.95 58.5072 295.471 59.1094L296.313 60.0859ZM294.97 63.8091C294.181 64.2078 293.591 64.688 293.2 65.2495C292.81 65.811 292.614 66.3848 292.614 66.9707C292.614 67.7113 292.854 68.3175 293.334 68.7896C293.823 69.2534 294.474 69.4854 295.288 69.4854C295.825 69.4854 296.341 69.3796 296.838 69.168C297.334 68.9564 297.875 68.6064 298.461 68.1182L294.97 63.8091ZM314.855 72V54.1045H322.46C324.373 54.1045 325.76 54.2673 326.623 54.5928C327.494 54.9102 328.19 55.4798 328.71 56.3018C329.231 57.1237 329.492 58.0636 329.492 59.1216C329.492 60.4644 329.097 61.5752 328.308 62.4541C327.518 63.3249 326.338 63.8742 324.768 64.1021C325.549 64.5578 326.192 65.0583 326.696 65.6035C327.209 66.1488 327.897 67.1172 328.759 68.5088L330.944 72H326.623L324.011 68.106C323.083 66.7144 322.448 65.8395 322.106 65.4814C321.765 65.1152 321.403 64.867 321.02 64.7368C320.638 64.5985 320.031 64.5293 319.201 64.5293H318.469V72H314.855ZM318.469 61.6729H321.142C322.875 61.6729 323.958 61.5996 324.389 61.4531C324.82 61.3066 325.158 61.0544 325.402 60.6963C325.646 60.3382 325.769 59.8906 325.769 59.3535C325.769 58.7513 325.606 58.2671 325.28 57.9009C324.963 57.5265 324.511 57.2905 323.925 57.1929C323.632 57.1522 322.753 57.1318 321.289 57.1318H318.469V61.6729ZM340.393 67.874L343.811 68.4478C343.371 69.701 342.675 70.6572 341.723 71.3164C340.779 71.9674 339.595 72.293 338.171 72.293C335.917 72.293 334.248 71.5565 333.166 70.0835C332.312 68.9035 331.884 67.4142 331.884 65.6157C331.884 63.4673 332.446 61.7868 333.569 60.5742C334.692 59.3535 336.112 58.7432 337.829 58.7432C339.758 58.7432 341.28 59.382 342.395 60.6597C343.509 61.9292 344.042 63.8783 343.994 66.5068H335.4C335.424 67.5241 335.701 68.3175 336.23 68.8872C336.759 69.4487 337.418 69.7295 338.208 69.7295C338.745 69.7295 339.196 69.583 339.562 69.29C339.929 68.9971 340.205 68.5251 340.393 67.874ZM340.588 64.4072C340.563 63.4144 340.307 62.6616 339.819 62.1489C339.331 61.6281 338.736 61.3677 338.037 61.3677C337.288 61.3677 336.669 61.6403 336.181 62.1855C335.693 62.7308 335.453 63.4714 335.461 64.4072H340.588ZM349.365 62.9912L346.252 62.4297C346.602 61.1764 347.204 60.2487 348.059 59.6465C348.913 59.0443 350.183 58.7432 351.867 58.7432C353.397 58.7432 354.536 58.9263 355.285 59.2925C356.034 59.6506 356.559 60.1104 356.86 60.6719C357.169 61.2253 357.324 62.2466 357.324 63.7358L357.287 67.7397C357.287 68.8791 357.34 69.7214 357.446 70.2666C357.56 70.8037 357.767 71.3815 358.068 72H354.675C354.585 71.7721 354.475 71.4344 354.345 70.9868C354.288 70.7834 354.248 70.6491 354.223 70.584C353.637 71.1536 353.011 71.5809 352.343 71.8657C351.676 72.1506 350.964 72.293 350.207 72.293C348.872 72.293 347.819 71.9308 347.045 71.2065C346.28 70.4823 345.898 69.5667 345.898 68.46C345.898 67.7275 346.073 67.0765 346.423 66.5068C346.773 65.929 347.261 65.4896 347.888 65.1885C348.522 64.8792 349.434 64.6107 350.622 64.3828C352.225 64.0817 353.336 63.8009 353.955 63.5405V63.1987C353.955 62.5396 353.792 62.0716 353.466 61.7949C353.141 61.5101 352.526 61.3677 351.623 61.3677C351.013 61.3677 350.537 61.4897 350.195 61.7339C349.853 61.9699 349.576 62.389 349.365 62.9912ZM353.955 65.7744C353.515 65.9209 352.819 66.0959 351.867 66.2993C350.915 66.5028 350.292 66.7021 350 66.8975C349.552 67.2148 349.328 67.6177 349.328 68.106C349.328 68.5861 349.507 69.0011 349.865 69.3511C350.223 69.701 350.679 69.876 351.232 69.876C351.851 69.876 352.441 69.6725 353.002 69.2656C353.417 68.9564 353.69 68.578 353.82 68.1304C353.91 67.8374 353.955 67.2799 353.955 66.458V65.7744ZM360.717 72V54.1045H364.147V72H360.717ZM382.141 67.874L385.559 68.4478C385.119 69.701 384.423 70.6572 383.471 71.3164C382.527 71.9674 381.343 72.293 379.919 72.293C377.665 72.293 375.996 71.5565 374.914 70.0835C374.06 68.9035 373.632 67.4142 373.632 65.6157C373.632 63.4673 374.194 61.7868 375.317 60.5742C376.44 59.3535 377.86 58.7432 379.577 58.7432C381.506 58.7432 383.028 59.382 384.143 60.6597C385.257 61.9292 385.791 63.8783 385.742 66.5068H377.148C377.172 67.5241 377.449 68.3175 377.978 68.8872C378.507 69.4487 379.166 69.7295 379.956 69.7295C380.493 69.7295 380.944 69.583 381.311 69.29C381.677 68.9971 381.953 68.5251 382.141 67.874ZM382.336 64.4072C382.312 63.4144 382.055 62.6616 381.567 62.1489C381.079 61.6281 380.485 61.3677 379.785 61.3677C379.036 61.3677 378.417 61.6403 377.929 62.1855C377.441 62.7308 377.201 63.4714 377.209 64.4072H382.336ZM387.341 68.3013L390.783 67.7764C390.93 68.4437 391.227 68.9523 391.674 69.3022C392.122 69.644 392.749 69.8149 393.554 69.8149C394.441 69.8149 395.109 69.6522 395.556 69.3267C395.857 69.0988 396.008 68.7936 396.008 68.4111C396.008 68.1507 395.926 67.9351 395.764 67.7642C395.593 67.6014 395.21 67.4508 394.616 67.3125C391.849 66.7021 390.096 66.1447 389.355 65.6401C388.33 64.9403 387.817 63.9678 387.817 62.7227C387.817 61.5996 388.26 60.6556 389.147 59.8906C390.035 59.1257 391.41 58.7432 393.273 58.7432C395.048 58.7432 396.366 59.0321 397.229 59.6099C398.091 60.1877 398.685 61.0422 399.011 62.1733L395.776 62.7715C395.638 62.2669 395.373 61.8804 394.982 61.6118C394.6 61.3433 394.051 61.209 393.334 61.209C392.431 61.209 391.784 61.3351 391.394 61.5874C391.133 61.7664 391.003 61.9984 391.003 62.2832C391.003 62.5273 391.117 62.7349 391.345 62.9058C391.654 63.1336 392.72 63.4551 394.543 63.8701C396.374 64.2852 397.652 64.7938 398.376 65.396C399.092 66.0063 399.45 66.8568 399.45 67.9473C399.45 69.1354 398.954 70.1567 397.961 71.0112C396.968 71.8657 395.499 72.293 393.554 72.293C391.788 72.293 390.389 71.9349 389.355 71.2188C388.33 70.5026 387.658 69.5301 387.341 68.3013ZM408.41 59.0361V61.7705H406.066V66.9951C406.066 68.0531 406.087 68.6715 406.127 68.8506C406.176 69.0215 406.278 69.1639 406.433 69.2778C406.595 69.3918 406.791 69.4487 407.019 69.4487C407.336 69.4487 407.796 69.3389 408.398 69.1191L408.691 71.7803C407.893 72.1221 406.99 72.293 405.981 72.293C405.362 72.293 404.805 72.1912 404.309 71.9878C403.812 71.7762 403.446 71.5076 403.21 71.1821C402.982 70.8485 402.823 70.4009 402.734 69.8394C402.661 69.4406 402.624 68.6349 402.624 67.4224V61.7705H401.049V59.0361H402.624V56.4604L406.066 54.4585V59.0361H408.41ZM413.354 62.9912L410.241 62.4297C410.591 61.1764 411.193 60.2487 412.048 59.6465C412.902 59.0443 414.172 58.7432 415.856 58.7432C417.386 58.7432 418.526 58.9263 419.274 59.2925C420.023 59.6506 420.548 60.1104 420.849 60.6719C421.158 61.2253 421.313 62.2466 421.313 63.7358L421.276 67.7397C421.276 68.8791 421.329 69.7214 421.435 70.2666C421.549 70.8037 421.757 71.3815 422.058 72H418.664C418.575 71.7721 418.465 71.4344 418.334 70.9868C418.278 70.7834 418.237 70.6491 418.212 70.584C417.626 71.1536 417 71.5809 416.333 71.8657C415.665 72.1506 414.953 72.293 414.196 72.293C412.862 72.293 411.808 71.9308 411.035 71.2065C410.27 70.4823 409.887 69.5667 409.887 68.46C409.887 67.7275 410.062 67.0765 410.412 66.5068C410.762 65.929 411.25 65.4896 411.877 65.1885C412.512 64.8792 413.423 64.6107 414.611 64.3828C416.215 64.0817 417.325 63.8009 417.944 63.5405V63.1987C417.944 62.5396 417.781 62.0716 417.456 61.7949C417.13 61.5101 416.516 61.3677 415.612 61.3677C415.002 61.3677 414.526 61.4897 414.184 61.7339C413.842 61.9699 413.566 62.389 413.354 62.9912ZM417.944 65.7744C417.504 65.9209 416.809 66.0959 415.856 66.2993C414.904 66.5028 414.282 66.7021 413.989 66.8975C413.541 67.2148 413.317 67.6177 413.317 68.106C413.317 68.5861 413.496 69.0011 413.854 69.3511C414.213 69.701 414.668 69.876 415.222 69.876C415.84 69.876 416.43 69.6725 416.992 69.2656C417.407 68.9564 417.679 68.578 417.81 68.1304C417.899 67.8374 417.944 67.2799 417.944 66.458V65.7744ZM430.651 59.0361V61.7705H428.308V66.9951C428.308 68.0531 428.328 68.6715 428.369 68.8506C428.417 69.0215 428.519 69.1639 428.674 69.2778C428.837 69.3918 429.032 69.4487 429.26 69.4487C429.577 69.4487 430.037 69.3389 430.639 69.1191L430.932 71.7803C430.135 72.1221 429.231 72.293 428.222 72.293C427.604 72.293 427.046 72.1912 426.55 71.9878C426.053 71.7762 425.687 71.5076 425.451 71.1821C425.223 70.8485 425.065 70.4009 424.975 69.8394C424.902 69.4406 424.865 68.6349 424.865 67.4224V61.7705H423.291V59.0361H424.865V56.4604L428.308 54.4585V59.0361H430.651ZM440.539 67.874L443.957 68.4478C443.518 69.701 442.822 70.6572 441.87 71.3164C440.926 71.9674 439.742 72.293 438.317 72.293C436.063 72.293 434.395 71.5565 433.312 70.0835C432.458 68.9035 432.031 67.4142 432.031 65.6157C432.031 63.4673 432.592 61.7868 433.715 60.5742C434.838 59.3535 436.258 58.7432 437.976 58.7432C439.904 58.7432 441.426 59.382 442.541 60.6597C443.656 61.9292 444.189 63.8783 444.14 66.5068H435.546C435.571 67.5241 435.847 68.3175 436.376 68.8872C436.905 69.4487 437.565 69.7295 438.354 69.7295C438.891 69.7295 439.343 69.583 439.709 69.29C440.075 68.9971 440.352 68.5251 440.539 67.874ZM440.734 64.4072C440.71 63.4144 440.454 62.6616 439.965 62.1489C439.477 61.6281 438.883 61.3677 438.183 61.3677C437.434 61.3677 436.816 61.6403 436.328 62.1855C435.839 62.7308 435.599 63.4714 435.607 64.4072H440.734ZM289.709 101V83.1045H293.322V101H289.709ZM308.544 101H305.114V94.3838C305.114 92.984 305.041 92.0807 304.895 91.6738C304.748 91.2588 304.508 90.9373 304.174 90.7095C303.849 90.4816 303.454 90.3677 302.99 90.3677C302.396 90.3677 301.863 90.5304 301.391 90.856C300.919 91.1815 300.594 91.6128 300.415 92.1499C300.244 92.687 300.158 93.6799 300.158 95.1284V101H296.728V88.0361H299.914V89.9404C301.045 88.4756 302.469 87.7432 304.187 87.7432C304.943 87.7432 305.635 87.8815 306.262 88.1582C306.888 88.4268 307.36 88.7726 307.678 89.1958C308.003 89.619 308.227 90.0991 308.349 90.6362C308.479 91.1733 308.544 91.9424 308.544 92.9434V101ZM319.006 83.1045H325.61C327.099 83.1045 328.234 83.2184 329.016 83.4463C330.065 83.7555 330.965 84.3049 331.713 85.0942C332.462 85.8836 333.032 86.8521 333.422 87.9995C333.813 89.1388 334.008 90.5467 334.008 92.2231C334.008 93.6961 333.825 94.9657 333.459 96.0317C333.011 97.3338 332.373 98.3877 331.542 99.1934C330.916 99.8037 330.069 100.28 329.003 100.622C328.206 100.874 327.14 101 325.805 101H319.006V83.1045ZM322.619 86.1318V97.9849H325.317C326.326 97.9849 327.054 97.9279 327.502 97.814C328.088 97.6675 328.572 97.4193 328.955 97.0693C329.345 96.7194 329.663 96.1457 329.907 95.3481C330.151 94.5425 330.273 93.4479 330.273 92.0645C330.273 90.681 330.151 89.619 329.907 88.8784C329.663 88.1379 329.321 87.5601 328.881 87.145C328.442 86.73 327.884 86.4492 327.209 86.3027C326.704 86.1888 325.716 86.1318 324.243 86.1318H322.619ZM339.624 91.9912L336.511 91.4297C336.861 90.1764 337.463 89.2487 338.317 88.6465C339.172 88.0443 340.441 87.7432 342.126 87.7432C343.656 87.7432 344.795 87.9263 345.544 88.2925C346.293 88.6506 346.818 89.1104 347.119 89.6719C347.428 90.2253 347.583 91.2466 347.583 92.7358L347.546 96.7397C347.546 97.8791 347.599 98.7214 347.705 99.2666C347.819 99.8037 348.026 100.382 348.327 101H344.934C344.844 100.772 344.734 100.434 344.604 99.9868C344.547 99.7834 344.506 99.6491 344.482 99.584C343.896 100.154 343.269 100.581 342.602 100.866C341.935 101.151 341.223 101.293 340.466 101.293C339.131 101.293 338.077 100.931 337.304 100.207C336.539 99.4823 336.157 98.5667 336.157 97.46C336.157 96.7275 336.332 96.0765 336.682 95.5068C337.032 94.929 337.52 94.4896 338.146 94.1885C338.781 93.8792 339.693 93.6107 340.881 93.3828C342.484 93.0817 343.595 92.8009 344.213 92.5405V92.1987C344.213 91.5396 344.051 91.0716 343.725 90.7949C343.4 90.5101 342.785 90.3677 341.882 90.3677C341.271 90.3677 340.795 90.4897 340.454 90.7339C340.112 90.9699 339.835 91.389 339.624 91.9912ZM344.213 94.7744C343.774 94.9209 343.078 95.0959 342.126 95.2993C341.174 95.5028 340.551 95.7021 340.258 95.8975C339.811 96.2148 339.587 96.6177 339.587 97.106C339.587 97.5861 339.766 98.0011 340.124 98.3511C340.482 98.701 340.938 98.876 341.491 98.876C342.11 98.876 342.7 98.6725 343.261 98.2656C343.676 97.9564 343.949 97.578 344.079 97.1304C344.169 96.8374 344.213 96.2799 344.213 95.458V94.7744ZM362.768 101H359.338V94.3838C359.338 92.984 359.265 92.0807 359.118 91.6738C358.972 91.2588 358.732 90.9373 358.398 90.7095C358.072 90.4816 357.678 90.3677 357.214 90.3677C356.62 90.3677 356.087 90.5304 355.615 90.856C355.143 91.1815 354.817 91.6128 354.638 92.1499C354.467 92.687 354.382 93.6799 354.382 95.1284V101H350.952V88.0361H354.138V89.9404C355.269 88.4756 356.693 87.7432 358.41 87.7432C359.167 87.7432 359.859 87.8815 360.485 88.1582C361.112 88.4268 361.584 88.7726 361.901 89.1958C362.227 89.619 362.451 90.0991 362.573 90.6362C362.703 91.1733 362.768 91.9424 362.768 92.9434V101ZM366.137 101V83.1045H369.567V92.6016L373.583 88.0361H377.807L373.376 92.7725L378.125 101H374.426L371.167 95.1772L369.567 96.8496V101H366.137ZM379.382 94.335C379.382 93.1956 379.663 92.0929 380.224 91.0269C380.786 89.9608 381.579 89.147 382.604 88.5854C383.638 88.0239 384.79 87.7432 386.059 87.7432C388.02 87.7432 389.628 88.382 390.881 89.6597C392.134 90.9292 392.761 92.5365 392.761 94.4814C392.761 96.4427 392.126 98.0703 390.856 99.3643C389.595 100.65 388.004 101.293 386.083 101.293C384.895 101.293 383.76 101.024 382.678 100.487C381.604 99.9502 380.786 99.1649 380.224 98.1313C379.663 97.0897 379.382 95.8242 379.382 94.335ZM382.897 94.5181C382.897 95.8039 383.203 96.7886 383.813 97.4722C384.423 98.1558 385.176 98.4976 386.071 98.4976C386.966 98.4976 387.715 98.1558 388.317 97.4722C388.928 96.7886 389.233 95.7957 389.233 94.4937C389.233 93.2241 388.928 92.2476 388.317 91.564C387.715 90.8804 386.966 90.5386 386.071 90.5386C385.176 90.5386 384.423 90.8804 383.813 91.564C383.203 92.2476 382.897 93.2323 382.897 94.5181ZM394.665 94.335C394.665 93.1956 394.946 92.0929 395.507 91.0269C396.069 89.9608 396.862 89.147 397.888 88.5854C398.921 88.0239 400.073 87.7432 401.342 87.7432C403.304 87.7432 404.911 88.382 406.164 89.6597C407.417 90.9292 408.044 92.5365 408.044 94.4814C408.044 96.4427 407.409 98.0703 406.14 99.3643C404.878 100.65 403.287 101.293 401.367 101.293C400.179 101.293 399.043 101.024 397.961 100.487C396.887 99.9502 396.069 99.1649 395.507 98.1313C394.946 97.0897 394.665 95.8242 394.665 94.335ZM398.181 94.5181C398.181 95.8039 398.486 96.7886 399.096 97.4722C399.707 98.1558 400.459 98.4976 401.354 98.4976C402.25 98.4976 402.998 98.1558 403.601 97.4722C404.211 96.7886 404.516 95.7957 404.516 94.4937C404.516 93.2241 404.211 92.2476 403.601 91.564C402.998 90.8804 402.25 90.5386 401.354 90.5386C400.459 90.5386 399.707 90.8804 399.096 91.564C398.486 92.2476 398.181 93.2323 398.181 94.5181ZM410.62 101V83.1045H414.05V92.6016L418.066 88.0361H422.29L417.858 92.7725L422.607 101H418.908L415.649 95.1772L414.05 96.8496V101H410.62Z" fill="white"/>
</g>
<defs>
<filter id="filter0_i_344_468" x="289.099" y="25.1045" width="180.786" height="80.1885" filterUnits="userSpaceOnUse" color-interpolation-filters="sRGB">
<feFlood flood-opacity="0" result="BackgroundImageFix"/>
<feBlend mode="normal" in="SourceGraphic" in2="BackgroundImageFix" result="shape"/>
<feColorMatrix in="SourceAlpha" type="matrix" values="0 0 0 0 0 0 0 0 0 0 0 0 0 0 0 0 0 0 127 0" result="hardAlpha"/>
<feOffset dy="4"/>
<feGaussianBlur stdDeviation="2"/>
<feComposite in2="hardAlpha" operator="arithmetic" k2="-1" k3="1"/>
<feColorMatrix type="matrix" values="0 0 0 0 0 0 0 0 0 0 0 0 0 0 0 0 0 0 0.25 0"/>
<feBlend mode="normal" in2="shape" result="effect1_innerShadow_344_468"/>
</filter>
</defs>
</svg>
